<mxfile host="app.diagrams.net" agent="Mozilla/5.0 (Macintosh; Intel Mac OS X 10_15_7) AppleWebKit/537.36 (KHTML, like Gecko) Chrome/128.0.0.0 Safari/537.36" version="28.2.8">
  <diagram name="第 1 页" id="oBshkRTFO64wKx46Ot5b">
    <mxGraphModel dx="1018" dy="571" grid="1" gridSize="10" guides="1" tooltips="1" connect="1" arrows="1" fold="1" page="1" pageScale="1" pageWidth="827" pageHeight="1169" math="0" shadow="0">
      <root>
        <mxCell id="0" />
        <mxCell id="1" parent="0" />
        <mxCell id="xntGbT-RrPsP_InJFuuK-1" value="业务需求&#xa;跨步骤信息共享&#xa;避免上下文污染" style="whiteSpace=wrap;strokeWidth=2;" vertex="1" parent="1">
          <mxGeometry x="464" y="40" width="172" height="82" as="geometry" />
        </mxCell>
        <mxCell id="xntGbT-RrPsP_InJFuuK-2" value="技术约束&#xa;LLM Token 限制&#xa;长文本成本高" style="whiteSpace=wrap;strokeWidth=2;" vertex="1" parent="1">
          <mxGeometry x="345" y="195" width="170" height="85" as="geometry" />
        </mxCell>
        <mxCell id="xntGbT-RrPsP_InJFuuK-3" value="架构模式&#xa;作用域化记忆&#xa;+ 摘要压缩" style="whiteSpace=wrap;strokeWidth=2;" vertex="1" parent="1">
          <mxGeometry x="244" y="369" width="156" height="81" as="geometry" />
        </mxCell>
        <mxCell id="xntGbT-RrPsP_InJFuuK-4" value="系统模块&#xa;Context Store&#xa;Memory Service&#xa;VectorStore" style="whiteSpace=wrap;strokeWidth=2;" vertex="1" parent="1">
          <mxGeometry x="121" y="544" width="173" height="96" as="geometry" />
        </mxCell>
        <mxCell id="xntGbT-RrPsP_InJFuuK-5" value="关键能力&#xa;• 作用域管理&#xa;• 摘要压缩&#xa;• 语义检索" style="whiteSpace=wrap;strokeWidth=2;" vertex="1" parent="1">
          <mxGeometry x="20" y="742" width="153" height="98" as="geometry" />
        </mxCell>
        <mxCell id="xntGbT-RrPsP_InJFuuK-6" value="Node间需要传递数据&#xa;但不能全局泄露" style="whiteSpace=wrap;strokeWidth=2;" vertex="1" parent="1">
          <mxGeometry x="580" y="195" width="208" height="78" as="geometry" />
        </mxCell>
        <mxCell id="xntGbT-RrPsP_InJFuuK-7" value="128K Token 窗口&#xa;超出截断或报错" style="whiteSpace=wrap;strokeWidth=2;" vertex="1" parent="1">
          <mxGeometry x="470" y="369" width="177" height="78" as="geometry" />
        </mxCell>
        <mxCell id="xntGbT-RrPsP_InJFuuK-8" value="global/flow/node&#xa;分级存储与访问" style="whiteSpace=wrap;strokeWidth=2;" vertex="1" parent="1">
          <mxGeometry x="360" y="553" width="186" height="78" as="geometry" />
        </mxCell>
        <mxCell id="xntGbT-RrPsP_InJFuuK-9" value="Redis短期+PG长期&#xa;Milvus向量检索" style="whiteSpace=wrap;strokeWidth=2;" vertex="1" parent="1">
          <mxGeometry x="244" y="742" width="189" height="78" as="geometry" />
        </mxCell>
        <mxCell id="xntGbT-RrPsP_InJFuuK-10" value="" style="curved=1;startArrow=none;endArrow=block;exitX=0.09;exitY=1;entryX=0.5;entryY=0;rounded=0;" edge="1" parent="1" source="xntGbT-RrPsP_InJFuuK-1" target="xntGbT-RrPsP_InJFuuK-2">
          <mxGeometry relative="1" as="geometry">
            <Array as="points">
              <mxPoint x="430" y="158" />
            </Array>
          </mxGeometry>
        </mxCell>
        <mxCell id="xntGbT-RrPsP_InJFuuK-11" value="" style="curved=1;startArrow=none;endArrow=block;exitX=0.13;exitY=1;entryX=0.5;entryY=0;rounded=0;" edge="1" parent="1" source="xntGbT-RrPsP_InJFuuK-2" target="xntGbT-RrPsP_InJFuuK-3">
          <mxGeometry relative="1" as="geometry">
            <Array as="points">
              <mxPoint x="322" y="333" />
            </Array>
          </mxGeometry>
        </mxCell>
        <mxCell id="xntGbT-RrPsP_InJFuuK-12" value="" style="curved=1;startArrow=none;endArrow=block;exitX=0.07;exitY=1;entryX=0.5;entryY=0;rounded=0;" edge="1" parent="1" source="xntGbT-RrPsP_InJFuuK-3" target="xntGbT-RrPsP_InJFuuK-4">
          <mxGeometry relative="1" as="geometry">
            <Array as="points">
              <mxPoint x="207" y="507" />
            </Array>
          </mxGeometry>
        </mxCell>
        <mxCell id="xntGbT-RrPsP_InJFuuK-13" value="" style="curved=1;startArrow=none;endArrow=block;exitX=0.09;exitY=1;entryX=0.5;entryY=0;rounded=0;" edge="1" parent="1" source="xntGbT-RrPsP_InJFuuK-4" target="xntGbT-RrPsP_InJFuuK-5">
          <mxGeometry relative="1" as="geometry">
            <Array as="points">
              <mxPoint x="97" y="706" />
            </Array>
          </mxGeometry>
        </mxCell>
        <mxCell id="xntGbT-RrPsP_InJFuuK-14" value="为什么" style="curved=1;dashed=1;dashPattern=2 3;startArrow=none;endArrow=block;exitX=0.91;exitY=1;entryX=0.5;entryY=-0.01;rounded=0;" edge="1" parent="1" source="xntGbT-RrPsP_InJFuuK-1" target="xntGbT-RrPsP_InJFuuK-6">
          <mxGeometry relative="1" as="geometry">
            <Array as="points">
              <mxPoint x="670" y="158" />
            </Array>
          </mxGeometry>
        </mxCell>
        <mxCell id="xntGbT-RrPsP_InJFuuK-15" value="为什么" style="curved=1;dashed=1;dashPattern=2 3;startArrow=none;endArrow=block;exitX=0.87;exitY=1;entryX=0.5;entryY=0;rounded=0;" edge="1" parent="1" source="xntGbT-RrPsP_InJFuuK-2" target="xntGbT-RrPsP_InJFuuK-7">
          <mxGeometry relative="1" as="geometry">
            <Array as="points">
              <mxPoint x="539" y="333" />
            </Array>
          </mxGeometry>
        </mxCell>
        <mxCell id="xntGbT-RrPsP_InJFuuK-16" value="为什么" style="curved=1;dashed=1;dashPattern=2 3;startArrow=none;endArrow=block;exitX=0.93;exitY=1;entryX=0.5;entryY=-0.01;rounded=0;" edge="1" parent="1" source="xntGbT-RrPsP_InJFuuK-3" target="xntGbT-RrPsP_InJFuuK-8">
          <mxGeometry relative="1" as="geometry">
            <Array as="points">
              <mxPoint x="437" y="507" />
            </Array>
          </mxGeometry>
        </mxCell>
        <mxCell id="xntGbT-RrPsP_InJFuuK-17" value="为什么" style="curved=1;dashed=1;dashPattern=2 3;startArrow=none;endArrow=block;exitX=0.9;exitY=1;entryX=0.5;entryY=0;rounded=0;" edge="1" parent="1" source="xntGbT-RrPsP_InJFuuK-4" target="xntGbT-RrPsP_InJFuuK-9">
          <mxGeometry relative="1" as="geometry">
            <Array as="points">
              <mxPoint x="318" y="706" />
            </Array>
          </mxGeometry>
        </mxCell>
      </root>
    </mxGraphModel>
  </diagram>
</mxfile>
